HIERARCHY
ROOT Hips
{
	OFFSET 0.00000 0.00000 0.00000
	CHANNELS 6 Xposition Yposition Zposition Zrotation Yrotation Xrotation 
	JOINT LHipJoint
	{
		OFFSET 0 0 0
		CHANNELS 3 Zrotation Yrotation Xrotation
		JOINT LeftHip
		{
			OFFSET 1.74857 -1.85566 0.69197
			CHANNELS 3 Zrotation Yrotation Xrotation
			JOINT LeftKnee
			{
				OFFSET 2.40003 -6.59403 0.00000
				CHANNELS 3 Zrotation Yrotation Xrotation
				JOINT LeftAnkle
				{
					OFFSET 2.82169 -7.75254 0.00000
					CHANNELS 3 Zrotation Yrotation Xrotation
					JOINT LeftToe
					{
						OFFSET 0.16466 -0.45240 2.26890
						CHANNELS 3 Zrotation Yrotation Xrotation
						End Site
						{
							OFFSET 0.00000 -0.00000 1.16486
						}
					}
				}
			}
		}
	}
	JOINT RHipJoint
	{
		OFFSET 0 0 0
		CHANNELS 3 Zrotation Yrotation Xrotation
		JOINT RightHip
		{
			OFFSET -1.64169 -1.85566 0.69197
			CHANNELS 3 Zrotation Yrotation Xrotation
			JOINT RightKnee
			{
				OFFSET -2.41814 -6.64379 0.00000
				CHANNELS 3 Zrotation Yrotation Xrotation
				JOINT RightAnkle
				{
					OFFSET -2.80588 -7.70911 0.00000
					CHANNELS 3 Zrotation Yrotation Xrotation
					JOINT RightToe
					{
						OFFSET -0.19098 -0.52472 2.25401
						CHANNELS 3 Zrotation Yrotation Xrotation
						End Site
						{
							OFFSET -0.00000 -0.00000 1.16333
						}
					}
				}
			}
		}
	}
	JOINT lowerback
	{
		OFFSET 0 0 0
		CHANNELS 3 Zrotation Yrotation Xrotation
		JOINT Chest
		{
			OFFSET -0.02828 2.14690 -0.11061
			CHANNELS 3 Zrotation Yrotation Xrotation
			JOINT Chest2
			{
				OFFSET -0.00167 2.15299 0.00759
				CHANNELS 3 Zrotation Yrotation Xrotation
				JOINT lowerneck
				{
					OFFSET 0 0 0
					CHANNELS 3 Zrotation Yrotation Xrotation
					JOINT Neck
					{
						OFFSET -0.09296 1.90118 0.07197
						CHANNELS 3 Zrotation Yrotation Xrotation
						JOINT Head
						{
							OFFSET 0.08490 1.89526 -0.24604
							CHANNELS 3 Zrotation Yrotation Xrotation
							End Site
							{
								OFFSET 0.03186 1.92109 -0.09483
							}
						}
					}
				}
				JOINT LeftCollar
				{
					OFFSET 0 0 0
					CHANNELS 3 Zrotation Yrotation Xrotation
					JOINT LeftShoulder
					{
						OFFSET 3.21569 1.44644 -0.03720
CHANNELS 3 Zrotation Xrotation Yrotation
						JOINT LeftElbow
						{
OFFSET 0 -5.476510 -0.000000
CHANNELS 3 Zrotation Xrotation Yrotation
							JOINT LeftWrist
							{
OFFSET 0 -3.090580 -0.000000
CHANNELS 3 Zrotation Xrotation Yrotation
								JOINT lhand
								{
									OFFSET 0 0 0
CHANNELS 3 Zrotation Xrotation Yrotation
									JOINT LFingers
									{
OFFSET 0 -0.771610 -0.000000
CHANNELS 3 Zrotation Xrotation Yrotation
										End Site
										{
OFFSET 0 -0.622090 -0.000000
										}
									}
								}
								JOINT LThumb
								{
OFFSET 0 0.000000 0.000000
CHANNELS 3 Zrotation Xrotation Yrotation
									End Site
									{
OFFSET 0 -0.631590 0.631590
									}
								}
							}
						}
					}
				}
				JOINT RightCollar
				{
					OFFSET 0 0 0
					CHANNELS 3 Zrotation Yrotation Xrotation
					JOINT RightShoulder
					{
						OFFSET -3.38693 1.28904 -0.07093
CHANNELS 3 Zrotation Xrotation Yrotation
						JOINT RightElbow
						{
OFFSET 0 -5.141820 -0.000000
CHANNELS 3 Zrotation Xrotation Yrotation
							JOINT RightWrist
							{
OFFSET 0 -3.355650 -0.000000
CHANNELS 3 Zrotation Xrotation Yrotation
								JOINT rhand
								{
									OFFSET 0 0 0
CHANNELS 3 Zrotation Xrotation Yrotation
									JOINT RFingers
									{
OFFSET 0 -0.801040 -0.000000
CHANNELS 3 Zrotation Xrotation Yrotation
										End Site
										{
OFFSET 0 -0.645820 -0.000000
										}
									}
								}
								JOINT RThumb
								{
OFFSET 0 0.000000 0.000000
CHANNELS 3 Zrotation Xrotation Yrotation
									End Site
									{
OFFSET 0 -0.655680 0.655680
									}
								}
							}
						}
					}
				}
			}
		}
	}
}
MOTION
Frames: 10
Frame Time: 0.008333333333333333
0.936118 16.866526 -1.467919 4.380622 -25.788302 5.868258 0.000000 0.000000 0.000000 -24.711217 4.626255 -36.661085 7.692264 15.888125 51.446507 2.586312 3.959531 -31.983507 0.394567 -4.032473 -11.168178 0.000000 0.000000 0.000000 6.186354 27.859544 -35.111308 -7.591926 -15.810751 51.079128 -1.215047 1.967603 -20.279848 -0.944886 6.190831 -17.339239 -2.340028 1.578413 18.939651 0.749118 1.472205 11.707183 1.862918 0.494866 1.933132 -4.857436 -4.665275 5.403813 4.691935 -6.302384 -11.620705 2.531074 -3.195384 -4.044705 0.000000 0.000000 0.000000 8.017834 -54.342461 -51.156418 135.577385 -50.481516 98.207350 -15.767103 2.785242 -38.165868 0.000000 0.000000 0.000000 -7.125000 0.000000 0.000000 -56.557915 59.071993 24.063749 0.000000 0.000000 0.000000 -14.116683 -58.758487 32.658504 -135.789550 -50.374342 -98.370733 14.497425 21.628980 3.718601 0.000000 0.000000 0.000000 7.125000 0.000000 0.000000 31.977235 32.157925 11.722369
0.933383 16.957184 -1.451319 4.465046 -26.237427 6.286513 0.000000 0.000000 0.000000 -24.944661 4.748613 -36.284426 7.279952 15.563109 49.925189 2.515653 3.880602 -31.535485 0.305664 -3.547169 -9.806683 0.000000 0.000000 0.000000 6.014939 27.965930 -34.773736 -7.182981 -15.483938 49.562760 -1.150964 2.058467 -19.700090 -0.901447 6.049850 -16.929469 -2.271999 1.643074 19.080747 0.626517 1.566838 11.249960 1.670723 0.564497 1.360995 -4.670283 -4.622353 5.357247 4.463261 -6.249833 -11.493149 2.425179 -3.164193 -4.015049 0.000000 0.000000 0.000000 8.920384 -52.722836 -51.106334 139.467961 -48.381399 101.163858 -18.477211 0.235152 -37.314634 0.000000 0.000000 0.000000 -7.125000 0.000000 0.000000 -57.773013 57.900263 23.129931 0.000000 0.000000 0.000000 -14.229417 -58.391950 30.542577 -129.368158 -53.244717 -93.319802 15.331744 22.788194 3.790538 0.000000 0.000000 0.000000 7.125000 0.000000 0.000000 32.568597 32.150507 12.025856
0.919448 17.051391 -1.439401 4.433846 -26.081871 6.852614 0.000000 0.000000 0.000000 -25.072501 4.544541 -35.883926 6.891558 15.239843 48.462861 2.390540 4.117071 -30.896289 0.422090 -4.169567 -11.554389 0.000000 0.000000 0.000000 6.023085 27.520827 -34.460699 -6.767650 -15.133072 47.989911 -1.094516 2.207951 -19.161592 -0.783881 5.652156 -15.778390 -1.824919 1.700240 19.156093 0.375055 1.716532 10.737511 1.117913 0.684264 0.775224 -4.217223 -4.803360 5.435835 4.472130 -6.452563 -11.389512 2.386318 -3.282507 -4.040922 0.000000 0.000000 0.000000 10.088157 -53.704480 -50.453023 141.451634 -47.185902 102.633255 -17.207663 0.749387 -36.543145 0.000000 0.000000 0.000000 -7.125000 0.000000 0.000000 -55.793965 57.705417 21.687702 0.000000 0.000000 0.000000 -14.085212 -55.930295 28.439908 -125.005935 -54.821223 -89.788906 16.285631 24.390740 3.540291 0.000000 0.000000 0.000000 7.125000 0.000000 0.000000 33.124043 31.847778 12.607194
0.870674 17.111489 -1.445655 4.393481 -25.798160 7.195834 0.000000 0.000000 0.000000 -24.900437 4.453547 -35.782848 6.673894 15.050964 47.629853 2.192971 4.569735 -29.895822 0.503276 -4.547431 -12.622183 0.000000 0.000000 0.000000 6.246278 27.273896 -34.089735 -6.484987 -14.882381 46.898496 -1.049219 1.913782 -18.814934 -0.826849 5.801387 -16.209156 -1.854890 1.930977 19.131888 0.301572 2.016757 10.516837 0.999694 0.841919 0.540021 -4.229478 -5.045388 5.429639 4.736413 -6.749756 -11.616475 2.463058 -3.445487 -4.045420 0.000000 0.000000 0.000000 11.573700 -56.544914 -48.798094 141.366563 -47.238970 102.570788 -14.522821 2.815747 -35.695045 0.000000 0.000000 0.000000 -7.125000 0.000000 0.000000 -52.533721 57.759352 19.955512 0.000000 0.000000 0.000000 -14.390876 -52.238871 27.691118 -125.202405 -54.756174 -89.949364 18.229445 23.384741 4.618833 0.000000 0.000000 0.000000 7.125000 0.000000 0.000000 34.790011 32.602709 12.716156
0.827947 17.161248 -1.442358 3.973549 -25.204177 7.203859 0.000000 0.000000 0.000000 -24.226802 3.955517 -35.145927 6.580232 14.967987 47.268246 2.090201 4.787824 -29.353970 0.507083 -4.564494 -12.670420 0.000000 0.000000 0.000000 7.118688 26.714794 -33.139083 -6.229637 -14.647206 45.896463 -1.016881 1.815561 -18.537481 -0.757874 5.559861 -15.512606 -1.255468 1.983802 19.382962 0.226488 2.177454 10.463977 0.545322 0.951823 0.373499 -4.017498 -5.168768 5.756927 4.782995 -6.898805 -11.673642 2.461782 -3.532020 -4.116132 0.000000 0.000000 0.000000 13.455023 -59.756322 -47.054876 137.559049 -49.449516 99.724447 -12.052398 4.514943 -35.261065 0.000000 0.000000 0.000000 -7.125000 0.000000 0.000000 -49.901301 58.022480 18.909950 0.000000 0.000000 0.000000 -14.964714 -48.805907 27.972463 -128.797168 -53.467964 -92.861891 20.483604 20.759566 4.193063 0.000000 0.000000 0.000000 7.125000 0.000000 0.000000 36.076266 31.996235 14.091744
0.801505 17.199390 -1.458491 3.822648 -24.974365 7.341575 0.000000 0.000000 0.000000 -23.829640 3.343592 -34.921684 6.533310 14.925909 47.086138 2.083991 4.620380 -29.231133 0.432161 -4.218811 -11.693166 0.000000 0.000000 0.000000 7.460024 26.374281 -32.844100 -6.042844 -14.469742 45.153476 -0.971614 1.742717 -18.125531 -0.755916 5.552956 -15.492761 -1.356094 1.989918 19.142977 0.287043 2.171937 10.740832 0.678560 0.938231 0.789637 -4.167957 -5.132741 5.878915 4.779246 -6.869436 -11.901944 2.493389 -3.511627 -4.202256 0.000000 0.000000 0.000000 17.445679 -62.268400 -43.215445 136.067403 -50.234702 98.584895 -16.546498 1.775474 -36.434698 0.000000 0.000000 0.000000 -7.125000 0.000000 0.000000 -55.111012 57.786720 21.413573 0.000000 0.000000 0.000000 -16.232553 -48.049299 28.410747 -133.673077 -51.402207 -96.728763 23.477017 17.918976 3.163871 0.000000 0.000000 0.000000 7.125000 0.000000 0.000000 37.499831 30.744754 16.456017
0.798878 17.222653 -1.489753 3.710761 -25.409191 7.953893 0.000000 0.000000 0.000000 -23.588224 3.018895 -35.531471 6.529131 14.922195 47.070088 1.992742 4.882840 -28.772636 0.406254 -4.091678 -11.334714 0.000000 0.000000 0.000000 7.300696 26.532231 -33.503058 -5.927088 -14.357315 44.688426 -0.926240 2.091113 -17.603283 -0.738454 5.489624 -15.310503 -2.923091 2.067744 20.824575 1.039748 1.993072 9.610592 2.339337 0.805943 -1.346143 -5.109478 -4.627096 5.952551 3.930928 -6.384607 -10.811764 2.429852 -3.181822 -4.061784 0.000000 0.000000 0.000000 21.893128 -60.539562 -38.479410 139.568685 -48.322051 101.238838 -16.188538 1.317111 -36.140183 0.000000 0.000000 0.000000 -7.125000 0.000000 0.000000 -54.464824 57.676481 20.898043 0.000000 0.000000 0.000000 -18.285697 -47.400645 29.546153 -139.629905 -48.284517 -101.283943 24.780853 16.027529 2.587766 0.000000 0.000000 0.000000 7.125000 0.000000 0.000000 38.026746 30.067024 17.665937
0.808843 17.219077 -1.519242 4.028036 -26.093143 8.521078 0.000000 0.000000 0.000000 -23.867960 2.832028 -36.334777 6.515865 14.910259 47.018500 1.956705 5.030771 -28.612611 0.409750 -4.108936 -11.383279 0.000000 0.000000 0.000000 6.446779 27.062386 -34.783087 -5.997206 -14.425636 44.970559 -0.906511 2.468157 -17.329437 -0.683662 5.286563 -14.727757 -1.410814 2.112100 19.570692 -0.410486 2.293407 10.371757 -0.068824 1.020622 0.198523 -4.086473 -4.976013 6.251563 4.941343 -6.639654 -12.128406 2.538050 -3.412918 -4.340634 0.000000 0.000000 0.000000 26.609721 -61.436330 -36.503381 145.055587 -44.770069 105.224990 -15.908258 -1.092201 -36.251429 0.000000 0.000000 0.000000 -7.125000 0.000000 0.000000 -54.356915 57.813146 21.026314 0.000000 0.000000 0.000000 -19.209759 -48.832619 27.735108 -144.447976 -45.200880 -104.795731 23.580386 16.750536 2.881606 0.000000 0.000000 0.000000 7.125000 0.000000 0.000000 37.452920 30.486022 16.735753
0.806587 17.151208 -1.551248 4.033048 -26.111447 8.772330 0.000000 0.000000 0.000000 -23.742428 2.534510 -37.134223 6.747254 15.115271 47.911712 2.059139 4.971101 -29.246746 0.481407 -4.449315 -12.344238 0.000000 0.000000 0.000000 6.104762 27.491071 -35.952972 -6.323247 -14.734398 46.265474 -0.944322 2.386156 -17.716551 -0.708268 5.378908 -14.992530 -1.247322 2.145024 20.290895 -0.533357 2.341527 10.185180 -0.326769 1.055864 -0.354504 -3.979962 -4.986039 6.442491 4.824455 -6.660378 -12.293487 2.497102 -3.421791 -4.430305 0.000000 0.000000 0.000000 23.626262 -59.197482 -39.362360 149.668675 -41.175302 108.372722 -16.634759 -1.440651 -36.635591 0.000000 0.000000 0.000000 -7.125000 0.000000 0.000000 -55.422021 57.895977 21.744129 0.000000 0.000000 0.000000 -19.190634 -48.478579 27.634234 -148.197210 -42.389124 -107.392265 23.616981 16.416022 3.293159 0.000000 0.000000 0.000000 7.125000 0.000000 0.000000 37.630713 30.838612 16.432645
0.779634 17.021911 -1.560983 4.144935 -25.631713 8.271521 0.000000 0.000000 0.000000 -23.683952 2.261590 -37.279146 7.121897 15.433528 49.333623 2.278381 4.808865 -30.540479 0.525018 -4.642904 -12.892917 0.000000 0.000000 0.000000 6.060208 27.510327 -36.735582 -6.948444 -15.288067 48.678621 -1.069630 2.493801 -18.873010 -0.670690 5.236282 -14.583926 -1.170051 2.065244 20.833162 -0.547986 2.236996 10.385458 -0.377912 1.005020 -0.404221 -4.113150 -4.941861 6.647998 4.807727 -6.622671 -12.584842 2.525883 -3.396840 -4.551793 0.000000 0.000000 0.000000 18.613506 -57.289329 -42.246893 151.318980 -39.735603 109.443818 -16.928656 -1.632282 -37.003603 0.000000 0.000000 0.000000 -7.125000 0.000000 0.000000 -56.107199 58.063606 22.377391 0.000000 0.000000 0.000000 -15.805598 -47.358284 29.680348 -150.405799 -40.542682 -108.854977 22.694621 17.199823 3.116233 0.000000 0.000000 0.000000 7.125000 0.000000 0.000000 37.021661 30.803063 16.059810
